<?xml version="1.0" encoding="UTF-8"?>
<svg width="120px" height="120px" viewBox="0 0 120 120" version="1.1" xmlns="http://www.w3.org/2000/svg" xmlns:xlink="http://www.w3.org/1999/xlink">
    <!-- Generator: Sketch 49 (51002) - http://www.bohemiancoding.com/sketch -->
    <title>Shape</title>
    <desc>Created with Sketch.</desc>
    <defs></defs>
    <g id="Page-1" stroke="none" stroke-width="1" fill="none" fill-rule="evenodd">
        <g id="Artboard" transform="translate(-2977.000000, -359.000000)" fill="#2ED573" fill-rule="nonzero">
            <path d="M3037,479 C3003.86292,479 2977,452.137085 2977,419 C2977,385.862915 3003.86292,359 3037,359 C3070.13708,359 3097,385.862915 3097,419 C3097,452.137085 3070.13708,479 3037,479 Z M3016.65316,424.887864 C3015.77335,424.0611 3014.39785,424.112656 3013.58089,425.003016 C3012.76393,425.893377 3012.81488,427.28538 3013.69468,428.112144 L3028.91204,442.412093 C3029.84668,443.290387 3031.3242,443.169476 3032.10725,442.150617 L3062.54197,402.550758 C3063.27908,401.591677 3063.10835,400.209476 3062.16064,399.463525 C3061.21293,398.717573 3059.84712,398.890348 3059.11001,399.849429 L3030.13191,437.554026 L3016.65316,424.887864 Z" id="Shape"></path>
        </g>
    </g>
</svg>